<?xml version="1.0" encoding="utf-8"?>
<!-- Generator: Adobe Illustrator 17.1.0, SVG Export Plug-In . SVG Version: 6.00 Build 0)  -->
<!DOCTYPE svg PUBLIC "-//W3C//DTD SVG 1.1//EN" "http://www.w3.org/Graphics/SVG/1.1/DTD/svg11.dtd">
<svg version="1.1" id="Layer_1" xmlns="http://www.w3.org/2000/svg" xmlns:xlink="http://www.w3.org/1999/xlink" x="0px" y="0px"
	 viewBox="0 0 194 106.9" enable-background="new 0 0 194 106.9" xml:space="preserve">
<g>
	<path fill-rule="evenodd" clip-rule="evenodd" fill="#E73446" d="M159.1,55.2c-1.9,5.2-9.8,8.9-9.8,8.9c2.3-3.6-1.6-8.4-3.1-10.1
		c-14.9-3.5-25.7-14-25.7-26.4c0-15.3,16.5-27.6,36.8-27.6C177.5,0,194,12.4,194,27.6C194,42.4,178.5,54.5,159.1,55.2z M128.7,64.2
		h15.9l-13.1,18l14.7,23.8h-16.1l-7.3-12l-5.3,7.2v4.7h-15.1V47.9h15.1v30l10.1-13.7H128.7z M88.6,106.7c-4,0-7.2-1-9.3-3.1
		c-2.2-2.1-3.3-5.1-3.3-9V47.9H91v40.4c0,3.2,1.4,4.8,4,4.8c0.6,0,1.1,0,1.9,0c0.6-0.1,1.6-0.2,2.2-0.4v12.3
		c-1.2,0.5-2.6,0.9-4.1,1.2C92.7,106.5,90.6,106.7,88.6,106.7z M77.4,105.5c0,0-5.5,1.9-10.3,1.3c-1.7-0.2-3.1-0.6-4.1-1.4
		c-1.4-1-2.3-2.4-2.7-4.3l-0.3-1.5c-1.9,2.4-4,4.2-6.4,5.5c-2.4,1.2-5,1.9-7.8,1.9c-2.1,0-4-0.3-5.8-1c-1.8-0.7-3.4-1.6-4.7-2.8
		c-1.3-1.2-2.3-2.6-3.1-4.3C31.4,97,31,95.3,31,93.3c0-2.1,0.5-4.1,1.4-5.8c0.9-1.8,2.2-3.3,3.7-4.5c1.6-1.3,3.5-2.3,5.7-3
		c2.2-0.7,4.6-1,7.3-1c3.4,0,6.1,0.5,8.5,1.6v-1.3c0-2-0.6-3.4-1.7-4.4c-1.1-1-3-1.4-5.5-1.4c-2.4,0-4.6,0.4-6.6,1.2
		c-2,0.8-4.1,1.9-6.4,3.4l-4.4-9.4c5.5-3.6,11.8-5.3,18.9-5.3c6.7,0,11.8,1.5,15.5,4.5c3.4,2.8,5.4,7,5.4,12.6v15.6
		c0,0.3,0,0.6,0,0.9C72.8,99.4,73.6,104.5,77.4,105.5z M57.5,88.3c-0.9-0.3-1.9-0.6-3-0.8c-1.1-0.2-2-0.3-2.9-0.3
		c-1.9,0-3.4,0.5-4.6,1.4c-1.2,0.9-1.8,2-1.8,3.4c0,1.2,0.5,2.1,1.4,2.9c0.9,0.7,2.1,1.1,3.5,1.1c0.9,0,1.8-0.1,2.8-0.4
		c1-0.3,1.8-0.7,2.6-1.2c0.6-0.4,1.1-0.9,1.4-1.4c0.4-0.5,0.6-1,0.6-1.6V88.3z M32,103.9c0.1,0.1,0.2,0.2,0.3,0.3
		c-1.9,0.7-4.1,1.3-5.9,1.7c-2.4,0.6-4.8,0.9-7.1,0.9c-1.7,0-3.3-0.2-4.9-0.6c-1.5-0.4-2.9-1.1-4-2.1c-1.1-1-2-2.2-2.7-3.7
		c-0.7-1.5-0.9-3.5-0.9-5.7V75.5H0V63.9h6.8v-16h15.1v16h6.5v11.6h-6.5v13.8c0,1.4,0.2,2.4,0.8,2.9c0.6,0.6,1.3,0.8,2.3,0.8
		c0.6,0,1.8-0.1,2.8-0.2c-0.1,0.5-0.1,1-0.1,1.5c0,1.9,0.4,3.7,1.1,5.3C29.6,101.3,30.7,102.7,32,103.9z"/>
</g>
</svg>
